<svg width="30" height="17" viewBox="0 0 30 17" fill="none" xmlns="http://www.w3.org/2000/svg">
<path d="M0.722413 8.94191C0.472452 8.69187 0.332031 8.35279 0.332031 7.99924C0.332031 7.64569 0.472452 7.30661 0.722413 7.05657L7.38908 0.389908C7.64055 0.147031 7.97735 0.0126375 8.32695 0.0156754C8.67654 0.0187133 9.01096 0.158939 9.25817 0.40615C9.50538 0.65336 9.64561 0.987777 9.64864 1.33737C9.65168 1.68697 9.51729 2.02377 9.27441 2.27524L4.88375 6.66591H28.3317C28.6854 6.66591 29.0245 6.80638 29.2746 7.05643C29.5246 7.30648 29.6651 7.64562 29.6651 7.99924C29.6651 8.35286 29.5246 8.692 29.2746 8.94205C29.0245 9.1921 28.6854 9.33257 28.3317 9.33257H4.88375L9.27441 13.7232C9.40176 13.8462 9.50334 13.9934 9.57321 14.156C9.64309 14.3187 9.67988 14.4937 9.68141 14.6707C9.68295 14.8477 9.64922 15.0233 9.58218 15.1872C9.51513 15.351 9.41613 15.4999 9.29094 15.6251C9.16575 15.7503 9.01688 15.8493 8.85302 15.9163C8.68916 15.9834 8.51358 16.0171 8.33654 16.0156C8.1595 16.014 7.98455 15.9773 7.82187 15.9074C7.6592 15.8375 7.51208 15.7359 7.38908 15.6086L0.722413 8.94191Z" fill="#46C86A"/>
</svg>
