<svg width="30" height="16" viewBox="0 0 30 17" fill="none" xmlns="http://www.w3.org/2000/svg">
<path d="M22.608 15.6086C22.3566 15.8515 22.0198 15.9858 21.6702 15.9828C21.3206 15.9798 20.9861 15.8395 20.7389 15.5923C20.4917 15.3451 20.3515 15.0107 20.3485 14.6611C20.3454 14.3115 20.4798 13.9747 20.7227 13.7232L25.1134 9.33257H1.66536C1.31174 9.33257 0.972604 9.1921 0.722555 8.94205C0.472507 8.692 0.332031 8.35286 0.332031 7.99924C0.332031 7.64562 0.472507 7.30648 0.722555 7.05643C0.972604 6.80638 1.31174 6.66591 1.66536 6.66591H25.1134L20.7227 2.27524C20.4798 2.02377 20.3454 1.68697 20.3485 1.33737C20.3515 0.987777 20.4917 0.65336 20.7389 0.40615C20.9861 0.158939 21.3206 0.0187133 21.6702 0.0156754C22.0198 0.0126375 22.3566 0.147031 22.608 0.389908L29.2747 7.05657C29.5247 7.30661 29.6651 7.64569 29.6651 7.99924C29.6651 8.35279 29.5247 8.69187 29.2747 8.94191L22.608 15.6086Z" fill="#46C86A"/>
</svg>
