<svg width="11" height="7" viewBox="0 0 11 7" fill="none" xmlns="http://www.w3.org/2000/svg">
<path d="M1.29357 1.71978L5.29357 5.71978C5.4811 5.90725 5.7354 6.01256 6.00057 6.01256C6.26573 6.01256 6.52004 5.90725 6.70757 5.71978L10.7076 1.71978C10.8897 1.53118 10.9905 1.27857 10.9882 1.01638C10.986 0.754179 10.8808 0.503367 10.6954 0.317958C10.51 0.13255 10.2592 0.0273806 9.99697 0.0251022C9.73477 0.0228238 9.48217 0.123618 9.29357 0.305776L6.00057 3.59878L2.70757 0.305776C2.61532 0.210266 2.50498 0.134085 2.38297 0.0816761C2.26097 0.0292671 2.12975 0.00167985 1.99697 0.000526038C1.86419 -0.000627778 1.73251 0.0246737 1.60962 0.0749546C1.48672 0.125235 1.37507 0.19949 1.28117 0.293382C1.18728 0.387275 1.11303 0.498928 1.06275 0.621824C1.01247 0.74472 0.987165 0.876399 0.988319 1.00918C0.989473 1.14196 1.01706 1.27318 1.06947 1.39518C1.12188 1.51719 1.19806 1.62753 1.29357 1.71978Z" fill="black"/>
</svg>
