<svg width="22" height="22" viewBox="0 0 22 22" fill="none" xmlns="http://www.w3.org/2000/svg">
<path d="M0.725846 19.3911L9.11651 11.0004L0.725846 2.60977C0.482968 2.3583 0.348575 2.02149 0.351613 1.6719C0.354651 1.3223 0.494876 0.987887 0.742087 0.740676C0.989298 0.493465 1.32371 0.353239 1.67331 0.350201C2.02291 0.347164 2.35971 0.481557 2.61118 0.724434L11.0018 9.1151L19.3925 0.724434C19.5155 0.597087 19.6626 0.495511 19.8253 0.425632C19.988 0.355753 20.1629 0.318972 20.34 0.317433C20.517 0.315895 20.6926 0.34963 20.8564 0.416671C21.0203 0.483712 21.1692 0.582717 21.2944 0.707907C21.4196 0.833097 21.5186 0.981967 21.5856 1.14583C21.6527 1.30969 21.6864 1.48526 21.6848 1.6623C21.6833 1.83934 21.6465 2.0143 21.5766 2.17697C21.5068 2.33964 21.4052 2.48677 21.2778 2.60977L12.8872 11.0004L21.2778 19.3911C21.4052 19.5141 21.5068 19.6612 21.5766 19.8239C21.6465 19.9866 21.6833 20.1615 21.6848 20.3386C21.6864 20.5156 21.6527 20.6912 21.5856 20.855C21.5186 21.0189 21.4196 21.1678 21.2944 21.293C21.1692 21.4181 21.0203 21.5172 20.8564 21.5842C20.6926 21.6512 20.517 21.685 20.34 21.6834C20.1629 21.6819 19.988 21.6451 19.8253 21.5752C19.6626 21.5054 19.5155 21.4038 19.3925 21.2764L11.0018 12.8858L2.61118 21.2764C2.35971 21.5193 2.02291 21.6537 1.67331 21.6507C1.32371 21.6476 0.989298 21.5074 0.742087 21.2602C0.494876 21.013 0.354651 20.6786 0.351613 20.329C0.348575 19.9794 0.482968 19.6426 0.725846 19.3911Z" fill="#46C86A"/>
</svg>
