<svg width="28" height="24" viewBox="0 0 28 24" fill="none" xmlns="http://www.w3.org/2000/svg">
<path d="M0.667969 1.33333C0.667969 0.979711 0.808444 0.640573 1.05849 0.390524C1.30854 0.140476 1.64768 0 2.0013 0H26.0013C26.3549 0 26.6941 0.140476 26.9441 0.390524C27.1942 0.640573 27.3346 0.979711 27.3346 1.33333C27.3346 1.68696 27.1942 2.02609 26.9441 2.27614C26.6941 2.52619 26.3549 2.66667 26.0013 2.66667H2.0013C1.64768 2.66667 1.30854 2.52619 1.05849 2.27614C0.808444 2.02609 0.667969 1.68696 0.667969 1.33333ZM2.0013 13.3333H26.0013C26.3549 13.3333 26.6941 13.1929 26.9441 12.9428C27.1942 12.6928 27.3346 12.3536 27.3346 12C27.3346 11.6464 27.1942 11.3072 26.9441 11.0572C26.6941 10.8071 26.3549 10.6667 26.0013 10.6667H2.0013C1.64768 10.6667 1.30854 10.8071 1.05849 11.0572C0.808444 11.3072 0.667969 11.6464 0.667969 12C0.667969 12.3536 0.808444 12.6928 1.05849 12.9428C1.30854 13.1929 1.64768 13.3333 2.0013 13.3333ZM2.0013 24H26.0013C26.3549 24 26.6941 23.8595 26.9441 23.6095C27.1942 23.3594 27.3346 23.0203 27.3346 22.6667C27.3346 22.313 27.1942 21.9739 26.9441 21.7239C26.6941 21.4738 26.3549 21.3333 26.0013 21.3333H2.0013C1.64768 21.3333 1.30854 21.4738 1.05849 21.7239C0.808444 21.9739 0.667969 22.313 0.667969 22.6667C0.667969 23.0203 0.808444 23.3594 1.05849 23.6095C1.30854 23.8595 1.64768 24 2.0013 24Z" fill="#46C86A"/>
</svg>
