<svg width="22" height="18" viewBox="0 0 22 18" fill="none" xmlns="http://www.w3.org/2000/svg">
<path d="M21 0H1C0.734784 0 0.48043 0.105357 0.292893 0.292893C0.105357 0.48043 0 0.734784 0 1V17C0 17.2652 0.105357 17.5196 0.292893 17.7071C0.48043 17.8946 0.734784 18 1 18H21C21.2652 18 21.5196 17.8946 21.7071 17.7071C21.8946 17.5196 22 17.2652 22 17V1C22 0.734784 21.8946 0.48043 21.7071 0.292893C21.5196 0.105357 21.2652 0 21 0ZM20 16H2V2H20V16ZM3.132 4.5C3.1975 4.38585 3.28488 4.28574 3.38915 4.20543C3.49342 4.12512 3.61251 4.06618 3.7396 4.03199C3.86669 3.9978 3.99928 3.98904 4.12977 4.0062C4.26026 4.02336 4.38607 4.06611 4.5 4.132L11 7.848L17.5 4.132C17.7302 3.99939 18.0037 3.96366 18.2602 4.03268C18.5168 4.10169 18.7354 4.26979 18.868 4.5C19.0006 4.73021 19.0363 5.00367 18.9673 5.26022C18.8983 5.51677 18.7302 5.73539 18.5 5.868L11.5 9.868C11.3489 9.95429 11.178 9.99968 11.004 9.99968C10.83 9.99968 10.6591 9.95429 10.508 9.868L3.508 5.868C3.39318 5.80317 3.29231 5.71628 3.2112 5.61231C3.13009 5.50835 3.07034 5.38937 3.03539 5.26223C3.00045 5.13508 2.99099 5.00228 3.00757 4.87146C3.02415 4.74065 3.06644 4.61441 3.132 4.5ZM7.707 10.289C7.89447 10.4765 7.99979 10.7308 7.99979 10.996C7.99979 11.2612 7.89447 11.5155 7.707 11.703L5.707 13.703C5.5184 13.8852 5.2658 13.986 5.0036 13.9837C4.7414 13.9814 4.49059 13.8762 4.30518 13.6908C4.11977 13.5054 4.0146 13.2546 4.01233 12.9924C4.01005 12.7302 4.11084 12.4776 4.293 12.289L6.293 10.289C6.48106 10.1021 6.73566 9.99746 7.00083 9.99821C7.26599 9.99896 7.52 10.105 7.707 10.293V10.289ZM17.707 12.289C17.8025 12.3812 17.8787 12.4916 17.9311 12.6136C17.9835 12.7356 18.0111 12.8668 18.0123 12.9996C18.0134 13.1324 17.9881 13.2641 17.9378 13.387C17.8875 13.5098 17.8133 13.6215 17.7194 13.7154C17.6255 13.8093 17.5138 13.8835 17.391 13.9338C17.2681 13.9841 17.1364 14.0094 17.0036 14.0083C16.8708 14.0071 16.7396 13.9795 16.6176 13.9271C16.4956 13.8747 16.3852 13.7985 16.293 13.703L14.293 11.703C14.1108 11.5144 14.01 11.2618 14.0123 10.9996C14.0146 10.7374 14.1198 10.4866 14.3052 10.3012C14.4906 10.1158 14.7414 10.0106 15.0036 10.0083C15.2658 10.006 15.5184 10.1068 15.707 10.289L17.707 12.289Z" fill="black" fill-opacity="0.5"/>
</svg>
